<svg width="128" height="128" viewBox="0 0 128 128" fill="none" xmlns="http://www.w3.org/2000/svg">
<path d="M35 53V83H26.42C24.9825 83 23.6039 82.429 22.5875 81.4125C21.571 80.3961 21 79.0175 21 77.58V58.42C21 56.9825 21.571 55.6039 22.5875 54.5875C23.6039 53.571 24.9825 53 26.42 53H35ZM35 49H26.42C23.9217 49 21.5256 49.9925 19.7591 51.7591C17.9925 53.5256 17 55.9217 17 58.42V77.58C17 80.0783 17.9925 82.4744 19.7591 84.2409C20.6338 85.1157 21.6722 85.8095 22.8151 86.2829C23.958 86.7563 25.1829 87 26.42 87H35C36.0609 87 37.0783 86.5786 37.8284 85.8284C38.5786 85.0783 39 84.0609 39 83V53C39 51.9391 38.5786 50.9217 37.8284 50.1716C37.0783 49.4214 36.0609 49 35 49Z" fill="black"/>
<path d="M98.58 53C100.017 53 101.396 53.571 102.413 54.5875C103.429 55.6039 104 56.9825 104 58.42V77.58C104 79.0175 103.429 80.3961 102.413 81.4125C101.396 82.429 100.017 83 98.58 83H90V53H98.58ZM98.58 49H90C88.9391 49 87.9217 49.4214 87.1716 50.1716C86.4214 50.9217 86 51.9391 86 53V83C86 84.0609 86.4214 85.0783 87.1716 85.8284C87.9217 86.5786 88.9391 87 90 87H98.61C101.103 86.9921 103.491 85.9961 105.252 84.2304C107.012 82.4646 108 80.0732 108 77.58V58.42C108 55.9217 107.008 53.5256 105.241 51.7591C103.474 49.9925 101.078 49 98.58 49V49Z" fill="black"/>
<path d="M95.52 83.9199C94.588 88.6506 92.3644 93.0308 89.0954 96.5751C85.8265 100.119 81.64 102.689 77 104" stroke="black" stroke-width="4" stroke-miterlimit="10"/>
<path d="M29 52V46.08C29 39.1632 31.7477 32.5296 36.6387 27.6387C41.5296 22.7477 48.1632 20 55.08 20H69.92C76.8368 20 83.4704 22.7477 88.3613 27.6387C93.2523 32.5296 96 39.1632 96 46.08V52" stroke="black" stroke-width="4" stroke-miterlimit="10"/>
<path d="M70.08 97H58.92C55.6505 97 53 99.6505 53 102.92V106.08C53 109.35 55.6505 112 58.92 112H70.08C73.3495 112 76 109.35 76 106.08V102.92C76 99.6505 73.3495 97 70.08 97Z" stroke="black" stroke-width="4" stroke-miterlimit="10"/>
</svg>
