<svg width="128" height="128" viewBox="0 0 128 128" fill="none" xmlns="http://www.w3.org/2000/svg">
<path d="M64 72.8799C65.3845 72.8799 66.7379 73.2904 67.889 74.0596C69.0401 74.8288 69.9373 75.922 70.4672 77.2011C70.997 78.4802 71.1356 79.8876 70.8655 81.2455C70.5954 82.6034 69.9287 83.8507 68.9498 84.8296C67.9708 85.8086 66.7235 86.4753 65.3656 86.7454C64.0078 87.0155 62.6003 86.8769 61.3212 86.347C60.0421 85.8172 58.9489 84.92 58.1797 83.7689C57.4105 82.6177 57 81.2644 57 79.8799C57 78.0234 57.7375 76.2429 59.0503 74.9301C60.363 73.6174 62.1435 72.8799 64 72.8799V72.8799ZM64 68.8799C61.8244 68.8799 59.6977 69.525 57.8887 70.7337C56.0798 71.9424 54.6699 73.6604 53.8373 75.6704C53.0048 77.6804 52.7869 79.8921 53.2114 82.0259C53.6358 84.1597 54.6835 86.1197 56.2218 87.6581C57.7602 89.1964 59.7202 90.2441 61.854 90.6685C63.9878 91.093 66.1995 90.8751 68.2095 90.0426C70.2195 89.21 71.9375 87.8001 73.1462 85.9912C74.3549 84.1822 75 82.0555 75 79.8799C75 76.9625 73.8411 74.1646 71.7782 72.1017C69.7153 70.0388 66.9174 68.8799 64 68.8799Z" fill="black"/>
<path d="M63.9999 91C70.5799 91 73.8399 93.92 74.6599 100.88H53.3399C54.1599 93.88 57.4199 91 63.9999 91ZM63.9999 87C51.1699 87 49.1299 96.66 49.1299 104.88H78.8799C78.8799 96.66 76.8799 87 63.9999 87V87Z" fill="black"/>
<path d="M90.9004 32C92.2849 32 93.6382 32.4105 94.7894 33.1797C95.9405 33.9489 96.8377 35.0421 97.3676 36.3212C97.8974 37.6003 98.036 39.0078 97.7659 40.3656C97.4958 41.7235 96.8291 42.9708 95.8501 43.9497C94.8712 44.9287 93.6239 45.5954 92.266 45.8655C90.9082 46.1356 89.5007 45.997 88.2216 45.4672C86.9425 44.9373 85.8493 44.0401 85.0801 42.889C84.3109 41.7378 83.9004 40.3845 83.9004 39C83.9004 37.1435 84.6379 35.363 85.9506 34.0503C87.2634 32.7375 89.0439 32 90.9004 32ZM90.9004 28C88.7248 28 86.5981 28.6451 84.7891 29.8538C82.9802 31.0625 81.5703 32.7805 80.7377 34.7905C79.9052 36.8005 79.6873 39.0122 80.1118 41.146C80.5362 43.2798 81.5838 45.2398 83.1222 46.7782C84.6606 48.3166 86.6206 49.3642 88.7544 49.7886C90.8882 50.2131 93.0999 49.9952 95.1099 49.1627C97.1199 48.3301 98.8379 46.9202 100.047 45.1113C101.255 43.3023 101.9 41.1756 101.9 39C101.9 36.0826 100.741 33.2847 98.6786 31.2218C96.6157 29.1589 93.8178 28 90.9004 28Z" fill="black"/>
<path d="M91.13 50C97.71 50 100.97 52.92 101.79 59.88H80.47C81.29 52.88 84.55 50 91.13 50ZM91.13 46C78.3 46 76.25 55.66 76.25 63.88H106C106 55.66 104 46 91.13 46V46Z" fill="black"/>
<path d="M37 32C38.3845 32 39.7379 32.4105 40.889 33.1797C42.0401 33.9489 42.9373 35.0421 43.4672 36.3212C43.997 37.6003 44.1356 39.0078 43.8655 40.3656C43.5954 41.7235 42.9287 42.9708 41.9498 43.9497C40.9708 44.9287 39.7235 45.5954 38.3656 45.8655C37.0078 46.1356 35.6003 45.997 34.3212 45.4672C33.0421 44.9373 31.9489 44.0401 31.1797 42.889C30.4105 41.7378 30 40.3845 30 39C30 37.1435 30.7375 35.363 32.0503 34.0503C33.363 32.7375 35.1435 32 37 32ZM37 28C34.8244 28 32.6977 28.6451 30.8887 29.8538C29.0798 31.0625 27.6699 32.7805 26.8373 34.7905C26.0048 36.8005 25.7869 39.0122 26.2114 41.146C26.6358 43.2798 27.6835 45.2398 29.2218 46.7782C30.7602 48.3166 32.7202 49.3642 34.854 49.7886C36.9878 50.2131 39.1995 49.9952 41.2095 49.1627C43.2195 48.3301 44.9375 46.9202 46.1462 45.1113C47.3549 43.3023 48 41.1756 48 39C48 36.0826 46.8411 33.2847 44.7782 31.2218C42.7153 29.1589 39.9174 28 37 28V28Z" fill="black"/>
<path d="M36.88 50.1201C43.46 50.1201 46.72 53.0401 47.54 60.0001H26.21C27.04 53.0001 30.3 50.1201 36.88 50.1201ZM36.88 46.1201C24 46.1201 22 55.7801 22 64.0001H51.75C51.75 55.7801 49.75 46.1201 36.88 46.1201V46.1201Z" fill="black"/>
<path d="M41 31.0061C47.7324 26.3917 55.7152 23.9472 63.877 24.0009C72.0388 24.0545 79.9888 26.6036 86.66 31.3061" stroke="black" stroke-width="4" stroke-miterlimit="10"/>
<path d="M52 102.05C43.8782 99.4957 36.7832 94.4166 31.7473 87.5516C26.7114 80.6866 23.9974 72.3939 24 63.8799C24 63.5499 24 63.2199 24 62.8799" stroke="black" stroke-width="4" stroke-miterlimit="10"/>
<path d="M104 63C104 63.32 104 63.65 104 64C104.003 72.514 101.289 80.8067 96.2527 87.6717C91.2168 94.5367 84.1218 99.6158 76 102.17" stroke="black" stroke-width="4" stroke-miterlimit="10"/>
</svg>
