<svg width="128" height="128" viewBox="0 0 128 128" fill="none" xmlns="http://www.w3.org/2000/svg">
<path d="M64 48C65.3845 48 66.7379 48.4105 67.889 49.1797C69.0401 49.9489 69.9373 51.0421 70.4672 52.3212C70.997 53.6003 71.1356 55.0078 70.8655 56.3656C70.5954 57.7235 69.9287 58.9708 68.9498 59.9497C67.9708 60.9287 66.7235 61.5954 65.3656 61.8655C64.0078 62.1356 62.6003 61.997 61.3212 61.4672C60.0421 60.9373 58.9489 60.0401 58.1797 58.889C57.4105 57.7378 57 56.3845 57 55C57 53.1435 57.7375 51.363 59.0503 50.0503C60.363 48.7375 62.1435 48 64 48V48ZM64 44C61.8244 44 59.6977 44.6451 57.8887 45.8538C56.0798 47.0625 54.6699 48.7805 53.8373 50.7905C53.0048 52.8005 52.7869 55.0122 53.2114 57.146C53.6358 59.2798 54.6835 61.2398 56.2218 62.7782C57.7602 64.3166 59.7202 65.3642 61.854 65.7886C63.9878 66.2131 66.1995 65.9952 68.2095 65.1627C70.2195 64.3301 71.9375 62.9202 73.1462 61.1113C74.3549 59.3023 75 57.1756 75 55C75 52.0826 73.8411 49.2847 71.7782 47.2218C69.7153 45.1589 66.9174 44 64 44Z" fill="black"/>
<path d="M64.0001 66.1201C70.5801 66.1201 73.8401 69.0401 74.6601 76.0001H53.3401C54.1601 69.0001 57.4201 66.1201 64.0001 66.1201ZM64.0001 62.1201C51.1701 62.1201 49.1201 71.7801 49.1201 80.0001H78.8801C78.8801 71.7801 76.8801 62.1201 64.0001 62.1201V62.1201Z" fill="black"/>
<path d="M64 35.24C69.6882 35.24 75.2487 36.9267 79.9782 40.0869C84.7078 43.2471 88.394 47.7388 90.5708 52.994C92.7476 58.2492 93.3171 64.0319 92.2074 69.6108C91.0977 75.1897 88.3586 80.3142 84.3364 84.3364C80.3142 88.3585 75.1897 91.0977 69.6108 92.2074C64.0319 93.3171 58.2492 92.7476 52.994 90.5708C47.7388 88.394 43.2471 84.7078 40.0869 79.9782C36.9268 75.2486 35.24 69.6882 35.24 64C35.248 56.3748 38.2806 49.0642 43.6724 43.6724C49.0642 38.2806 56.3748 35.2479 64 35.24V35.24ZM64 31C57.4732 31 51.093 32.9354 45.6662 36.5615C40.2394 40.1876 36.0097 45.3415 33.512 51.3714C31.0143 57.4014 30.3608 64.0366 31.6341 70.438C32.9074 76.8394 36.0504 82.7194 40.6655 87.3345C45.2806 91.9497 51.1607 95.0926 57.562 96.3659C63.9634 97.6392 70.5986 96.9857 76.6286 94.488C82.6585 91.9903 87.8124 87.7606 91.4385 82.3338C95.0646 76.907 97 70.5268 97 64C97 55.2479 93.5232 46.8542 87.3345 40.6655C81.1458 34.4768 72.7522 31 64 31V31Z" fill="black"/>
<path d="M64 24.09C71.8935 24.09 79.6097 26.4307 86.1728 30.816C92.736 35.2014 97.8514 41.4345 100.872 48.7271C103.893 56.0197 104.683 64.0443 103.143 71.7861C101.603 79.5278 97.8022 86.6391 92.2207 92.2206C86.6391 97.8021 79.5279 101.603 71.7861 103.143C64.0443 104.683 56.0197 103.893 48.7271 100.872C41.4345 97.8513 35.2014 92.736 30.8161 86.1728C26.4307 79.6096 24.09 71.8935 24.09 64C24.1138 53.4225 28.3262 43.2851 35.8056 35.8056C43.2851 28.3262 53.4225 24.1138 64 24.09V24.09ZM64 20C55.2976 20 46.7907 22.5806 39.5549 27.4153C32.3192 32.2501 26.6796 39.122 23.3493 47.1619C20.0191 55.2019 19.1477 64.0488 20.8455 72.584C22.5432 81.1191 26.7338 88.9592 32.8873 95.1127C39.0408 101.266 46.8809 105.457 55.416 107.155C63.9512 108.852 72.7981 107.981 80.8381 104.651C88.878 101.32 95.7499 95.6809 100.585 88.4451C105.419 81.2093 108 72.7024 108 64C108 52.3305 103.364 41.1389 95.1127 32.8873C86.8611 24.6357 75.6695 20 64 20Z" fill="black"/>
<path d="M64 110V102" stroke="black" stroke-width="4" stroke-miterlimit="10" stroke-linecap="round"/>
<path d="M102 64H110" stroke="black" stroke-width="4" stroke-miterlimit="10" stroke-linecap="round"/>
<path d="M18 64H26" stroke="black" stroke-width="4" stroke-miterlimit="10" stroke-linecap="round"/>
<path d="M64 26V18" stroke="black" stroke-width="3.27" stroke-miterlimit="10" stroke-linecap="round"/>
</svg>
