<svg width="128" height="128" viewBox="0 0 128 128" fill="none" xmlns="http://www.w3.org/2000/svg">
<path d="M88 78V102C88 103.591 87.3679 105.117 86.2426 106.243C85.1174 107.368 83.5913 108 82 108H31C29.4087 108 27.8826 107.368 26.7574 106.243C25.6321 105.117 25 103.591 25 102V26C25 24.4087 25.6321 22.8826 26.7574 21.7574C27.8826 20.6321 29.4087 20 31 20H82C83.5913 20 85.1174 20.6321 86.2426 21.7574C87.3679 22.8826 88 24.4087 88 26V34" stroke="black" stroke-width="4" stroke-miterlimit="10" stroke-linecap="round"/>
<path d="M105.71 32.2598C105.731 32.2565 105.753 32.2594 105.773 32.2683C105.792 32.2772 105.809 32.2916 105.82 32.3098L112 38.4398C112.01 38.4565 112.015 38.4755 112.015 38.4948C112.015 38.5141 112.01 38.533 112 38.5498C112.01 38.5683 112.015 38.5889 112.015 38.6098C112.015 38.6307 112.01 38.6512 112 38.6698L66.6801 83.9398L56.0001 88.2398L60.3001 77.5798L105.57 32.3098C105.584 32.2916 105.602 32.2775 105.623 32.2687C105.644 32.2599 105.667 32.2568 105.69 32.2598H105.71ZM105.69 28.2598C105.142 28.2589 104.6 28.3662 104.093 28.5755C103.587 28.7849 103.127 29.0922 102.74 29.4798L56.9201 75.3198L50.6801 90.7798C50.5385 91.1088 50.4813 91.468 50.5137 91.8247C50.5462 92.1815 50.6673 92.5245 50.866 92.8225C51.0647 93.1206 51.3347 93.3643 51.6515 93.5314C51.9683 93.6986 52.3219 93.784 52.6801 93.7798C52.9611 93.7791 53.2394 93.7248 53.5001 93.6198L68.9601 87.3798L114.78 41.4998C115.167 41.1134 115.475 40.6543 115.684 40.149C115.894 39.6436 116.002 39.1019 116.002 38.5548C116.002 38.0077 115.894 37.4659 115.684 36.9606C115.475 36.4552 115.167 35.9962 114.78 35.6098L108.65 29.4798C107.871 28.6994 106.813 28.2606 105.71 28.2598H105.69Z" fill="black"/>
<path d="M94.3906 42.0898L101.461 49.1598" stroke="black" stroke-width="4" stroke-miterlimit="10"/>
<path d="M44 54H38" stroke="black" stroke-width="4" stroke-miterlimit="10" stroke-linecap="round"/>
<path d="M44 74H38" stroke="black" stroke-width="4" stroke-miterlimit="10" stroke-linecap="round"/>
<path d="M44 34H38" stroke="black" stroke-width="4" stroke-miterlimit="10" stroke-linecap="round"/>
<path d="M75 34H54" stroke="black" stroke-width="4" stroke-miterlimit="10" stroke-linecap="round"/>
<path d="M69.08 54H54" stroke="black" stroke-width="4" stroke-miterlimit="10" stroke-linecap="round"/>
<path d="M44 94H38" stroke="black" stroke-width="4" stroke-miterlimit="10" stroke-linecap="round"/>
<path d="M66.1094 70.3701L73.1794 77.4401" stroke="black" stroke-width="4" stroke-miterlimit="10"/>
</svg>
