<svg width="128" height="128" viewBox="0 0 128 128" fill="none" xmlns="http://www.w3.org/2000/svg">
<path d="M46 60.6697L57 66.6697V78.6697L46 72.6697V60.6697ZM42 53.9297V75.0497L44.08 76.1797L55.08 82.1797L61 85.4097V64.2997L58.92 63.1597L47.92 57.1597L42 53.9297Z" fill="black"/>
<path d="M64.0004 44.0004L75.0004 50.0004L64.0004 56.0004L53.0004 50.0004L64.0004 44.0004ZM64.0004 39.4404L62.0904 40.4904L51.0904 46.4904L44.6504 50.0004L51.0904 53.5104L62.0904 59.5104L64.0004 60.6004L65.9204 59.5504L76.9204 53.5504L83.3504 50.0004L76.9204 46.4904L65.9204 40.4904L64.0004 39.4804V39.4404Z" fill="black"/>
<path d="M82 60.6697V72.6697L71 78.6697V66.6697L82 60.6697ZM86 53.9297L80.08 57.1597L69.08 63.1597L67 64.2997V85.4097L72.92 82.1797L83.92 76.1797L86 75.0497V53.9297Z" fill="black"/>
<path d="M28 90.0001C20.962 81.5633 17.335 70.7988 17.8322 59.8231C18.3295 48.8475 22.915 38.455 30.687 30.6892C38.459 22.9235 48.8552 18.3464 59.8313 17.858C70.8073 17.3696 81.5689 21.0053 90 28.05" stroke="black" stroke-width="4" stroke-linecap="round" stroke-linejoin="bevel"/>
<path d="M81.4707 28.3099L89.4007 27.5499L88.6307 19.6299L92.3207 22.6699L93.0807 30.5899L85.1607 31.3499L81.4707 28.3099Z" fill="black"/>
<path d="M98 36C105.103 44.4281 108.783 55.215 108.314 66.2268C107.845 77.2386 103.261 87.6734 95.4669 95.4669C87.6734 103.261 77.2386 107.845 66.2268 108.314C55.215 108.783 44.4281 105.103 36 98" stroke="black" stroke-width="4" stroke-linecap="round" stroke-linejoin="bevel"/>
<path d="M44.5299 97.6904L36.5999 98.4504L37.3699 106.37L33.6799 103.33L32.9199 95.4104L40.8399 94.6504L44.5299 97.6904Z" fill="black"/>
</svg>
