<?xml version="1.0" encoding="UTF-8" standalone="no"?>
<!DOCTYPE svg PUBLIC "-//W3C//DTD SVG 1.1//EN" "http://www.w3.org/Graphics/SVG/1.1/DTD/svg11.dtd">
<svg xmlns="http://www.w3.org/2000/svg" version="1.1" viewBox="0.00 0.00 395.00 197.00">
<path fill="#C4E0EE" d="
  M 158.44 67.28
  A 1.10 1.08 -75.5 0 1 158.99 68.23
  L 159.01 129.07
  A 1.08 1.07 -15.0 0 1 158.47 130.00
  L 106.68 159.88
  A 2.79 2.78 44.7 0 1 103.91 159.89
  L 52.45 130.20
  Q 52.00 129.94 51.89 129.42
  C 51.24 126.42 51.79 123.03 51.77 120.89
  C 51.61 103.27 51.12 85.59 51.78 67.99
  Q 51.80 67.54 52.18 67.32
  L 104.73 36.95
  Q 105.28 36.63 105.82 36.94
  L 158.44 67.28
  Z
  M 113.21 76.36
  C 110.62 73.84 108.39 71.38 105.69 69.19
  Q 105.34 68.91 105.00 69.20
  C 101.03 72.62 93.80 78.44 94.80 83.54
  C 95.51 87.15 102.15 92.53 104.90 95.27
  A 0.71 0.70 -45.3 0 0 105.90 95.26
  C 110.36 90.66 120.88 83.81 113.21 76.36
  Z
  M 102.08 98.17
  Q 97.96 94.00 94.25 90.52
  C 86.84 83.59 80.36 93.51 75.65 98.21
  Q 75.29 98.57 75.65 98.91
  C 78.68 101.77 83.88 108.31 87.57 109.13
  C 92.57 110.24 98.92 102.29 102.09 99.02
  Q 102.51 98.59 102.08 98.17
  Z
  M 134.83 98.28
  C 131.16 94.05 123.75 84.52 117.39 89.62
  Q 114.41 92.01 108.74 98.32
  Q 108.40 98.70 108.75 99.06
  C 112.62 103.15 119.68 112.99 125.86 107.87
  Q 130.65 103.89 134.83 99.10
  A 0.62 0.62 0.0 0 0 134.83 98.28
  Z
  M 105.86 101.93
  A 0.61 0.60 45.3 0 0 105.02 101.92
  Q 101.19 105.53 97.42 109.55
  C 93.24 114.01 93.97 117.33 98.26 121.51
  Q 101.67 124.84 104.88 128.43
  Q 105.21 128.80 105.57 128.45
  C 110.22 124.04 117.35 118.52 115.86 113.48
  C 114.77 109.81 108.98 105.03 105.86 101.93
  Z"
/>
<path fill="#C4E0EE" d="
  M 260.09 85.42
  C 257.37 83.14 249.26 81.84 250.23 87.23
  Q 250.30 87.67 250.69 87.92
  Q 253.37 89.64 254.47 89.84
  C 268.03 92.23 283.24 97.58 279.35 114.40
  C 275.31 131.95 253.98 133.07 240.20 127.54
  Q 231.31 123.96 229.01 114.82
  A 0.89 0.89 0.0 0 1 229.60 113.75
  L 244.39 108.93
  Q 244.86 108.78 245.14 109.18
  Q 249.85 116.01 258.01 113.56
  Q 259.48 113.12 259.94 110.98
  Q 260.03 110.57 259.75 110.24
  Q 257.53 107.57 255.79 107.37
  C 245.70 106.24 233.06 102.35 231.21 91.53
  C 226.32 62.95 272.04 58.41 277.73 82.71
  Q 277.89 83.42 277.18 83.59
  L 261.59 87.37
  Q 261.02 87.51 260.84 86.95
  L 260.58 86.15
  Q 260.44 85.71 260.09 85.42
  Z"
/>
<path fill="#C4E0EE" d="
  M 167.98 68.55
  A 0.30 0.30 0.0 0 1 168.28 68.25
  L 195.72 68.25
  A 30.32 28.30 -0.0 0 1 226.04 96.55
  L 226.04 101.07
  A 30.32 28.30 -0.0 0 1 195.72 129.37
  L 168.28 129.37
  A 0.30 0.30 0.0 0 1 167.98 129.07
  L 167.98 68.55
  Z
  M 188.56 86.80
  L 188.72 110.88
  A 0.30 0.30 0.0 0 0 189.03 111.18
  L 193.88 111.15
  A 12.45 12.05 -0.4 0 0 206.24 99.01
  L 206.24 98.43
  A 12.45 12.05 -0.4 0 0 193.70 86.47
  L 188.85 86.50
  A 0.30 0.30 0.0 0 0 188.56 86.80
  Z"
/>
<path fill="#C4E0EE" d="
  M 304.68 110.22
  L 304.78 128.98
  Q 304.79 129.50 304.27 129.50
  L 285.28 129.50
  A 0.28 0.27 90.0 0 1 285.01 129.22
  L 284.93 68.66
  Q 284.93 68.25 285.34 68.25
  L 327.14 68.25
  A 0.39 0.39 0.0 0 1 327.53 68.64
  L 327.53 85.24
  Q 327.53 85.52 327.25 85.52
  L 305.93 85.53
  Q 304.71 85.53 304.72 86.76
  L 304.76 92.87
  Q 304.77 93.47 305.37 93.47
  L 324.87 93.61
  A 0.83 0.82 3.4 0 1 325.69 94.53
  Q 324.84 101.43 325.56 108.32
  Q 325.68 109.48 324.50 109.50
  L 305.09 109.80
  Q 304.68 109.80 304.68 110.22
  Z"
/>
</svg>
