<svg width="159" height="37" viewBox="0 0 159 37" fill="none" xmlns="http://www.w3.org/2000/svg">
<path d="M26.1748 4.65774L25.3868 6.59508C25.0561 7.40974 24.2655 7.94175 23.3868 7.94175H13.7001L12.3241 11.1391H18.0988C19.6295 11.1391 20.6735 12.6884 20.1015 14.1071L19.4028 15.8391C19.0735 16.6564 18.2801 17.1911 17.4001 17.1911H9.95213L8.6108 20.3884H16.5521C18.0828 20.3884 19.1268 21.9364 18.5548 23.3551L17.6481 25.6031C17.3188 26.4191 16.5268 26.9551 15.6455 26.9551H6.5628C2.72947 26.9551 0.117467 23.0711 1.56147 19.5204L7.44947 5.04975C8.27613 3.01508 10.2535 1.68441 12.4508 1.68441H24.1735C25.7068 1.68441 26.7521 3.23774 26.1748 4.65774Z" fill="#ADD364"/>
<path d="M42.77 6.29265C43.9953 7.71398 44.3007 9.74332 43.6807 12.378C43.6807 12.4473 43.658 12.55 43.6127 12.6873C43.4287 13.238 43.0967 13.6166 42.6153 13.822C42.134 14.0286 41.5953 14.1313 40.9993 14.1313H37.3647C36.21 14.1313 35.4073 12.9807 35.8073 11.8967C35.99 11.4847 35.9967 11.1353 35.8247 10.8487C35.6527 10.562 35.3607 10.418 34.9487 10.418C34.3753 10.418 33.9687 10.5273 33.7273 10.7447C33.4873 10.9633 33.2407 11.37 32.9887 11.966L29.9633 19.7353C29.6193 20.6073 29.5167 21.1687 29.6527 21.4207C29.7913 21.6727 30.0767 21.798 30.5127 21.798C31.0167 21.798 31.43 21.69 31.7513 21.4727C32.0713 21.254 32.346 20.8593 32.5753 20.286L32.878 19.5367C33.1313 18.9087 33.7407 18.498 34.418 18.498H39.59C40.1167 18.498 40.5233 18.6007 40.81 18.8073C41.0967 19.014 41.1247 19.3807 40.8967 19.9073L40.7593 20.2513C40.094 21.8113 39.446 23.0593 38.8153 23.9993C38.1847 24.9393 37.498 25.6553 36.7527 26.1473C36.0087 26.6407 35.1713 26.9607 34.2433 27.11C33.3153 27.2593 32.2433 27.334 31.0287 27.334H27.5567C26.57 27.334 25.6313 27.19 24.7367 26.9047C23.8433 26.618 23.1207 26.13 22.57 25.4433C22.0207 24.7553 21.7113 23.8447 21.642 22.71C21.574 21.5753 21.8833 20.1607 22.57 18.4633C22.7767 17.9367 23.0073 17.3287 23.258 16.642C23.4873 16.046 23.762 15.3233 24.0833 14.4753C24.4047 13.6273 24.794 12.642 25.2527 11.518C26.1233 9.29532 27.4073 7.51265 29.1033 6.17265C30.7993 4.83132 32.862 4.16065 35.2913 4.16065H36.8047C39.5553 4.16065 41.5433 4.87132 42.77 6.29265Z" fill="#ADD364"/>
<path d="M78.0954 16.9164L81.9808 26.9551H76.3421C75.6994 26.9551 75.1901 26.8071 74.8114 26.5084C74.4341 26.2111 74.1634 25.8551 74.0048 25.4431L71.4594 18.2231L67.8834 26.9551H64.8301C62.7754 26.9551 61.3768 24.8737 62.1528 22.9711L70.8408 1.68574C71.0474 1.15774 71.3848 0.745743 71.8554 0.447077C72.3248 0.149743 72.8234 0.000411184 73.3514 0.000411184H78.9208L73.5914 12.9631L79.1834 5.29508C79.6181 4.86041 80.2048 4.48974 80.9421 4.18174C81.5008 3.94841 82.1088 3.85241 82.7154 3.85241H89.3941L78.0954 16.9164Z" fill="#ADD364"/>
<path d="M100.069 2.26574L90.4092 25.9324C90.1572 26.5511 89.5559 26.9551 88.8879 26.9551H85.0466C83.8786 26.9551 83.0826 25.7711 83.5239 24.6897L92.9146 1.68574C93.1426 1.15774 93.4866 0.745743 93.9452 0.447077C94.4039 0.149743 94.8959 0.000411184 95.4239 0.000411184H98.5479C99.7146 0.000411184 100.511 1.18441 100.069 2.26574Z" fill="#ADD364"/>
<path d="M113.491 4.69398C114.488 5.04998 115.291 5.57665 115.898 6.27532C116.504 6.97532 116.895 7.82865 117.067 8.83665C117.239 9.84598 117.176 11.0033 116.878 12.31L116.775 12.5847C116.476 13.57 116.082 14.4527 115.588 15.2313C115.095 16.0113 114.448 16.6767 113.646 17.226C112.843 17.7767 111.863 18.2127 110.707 18.5327C109.548 18.854 108.167 19.038 106.563 19.0833L108.97 11.8967C109.154 11.4847 109.159 11.1353 108.987 10.8487C108.815 10.562 108.523 10.4193 108.111 10.4193C107.538 10.4193 107.124 10.5273 106.872 10.7447C106.62 10.9633 106.379 11.37 106.151 11.966L102.954 20.114C102.7 20.8247 102.662 21.2833 102.832 21.4887C103.004 21.6953 103.286 21.7993 103.675 21.7993C104.775 21.7993 105.972 21.7873 107.268 21.7647C108.563 21.742 109.852 21.57 111.136 21.2487H111.204C111.227 21.2487 111.239 21.2433 111.239 21.2313C111.239 21.2207 111.251 21.214 111.274 21.214C111.48 21.1687 111.715 21.134 111.978 21.1113C112.242 21.0887 112.478 21.1007 112.683 21.146C112.89 21.1913 113.039 21.278 113.131 21.4033C113.222 21.53 113.211 21.73 113.096 22.006C113.096 22.0513 113.079 22.1033 113.044 22.1593C113.01 22.218 112.992 22.258 112.992 22.2807C112.419 23.3807 111.842 24.2633 111.256 24.9273C110.672 25.5927 110.036 26.102 109.348 26.458C108.66 26.8127 107.899 27.0473 107.062 27.162C106.224 27.2767 105.268 27.334 104.191 27.334H100.719C99.7324 27.334 98.7937 27.19 97.8991 26.9047C97.0057 26.618 96.2831 26.1313 95.7324 25.4433C95.1831 24.7553 94.8737 23.8447 94.8044 22.71C94.7364 21.5753 95.0337 20.1607 95.6991 18.4633C95.9044 17.9367 96.1337 17.33 96.3857 16.642C96.6151 16.046 96.8964 15.3233 97.2284 14.4753C97.5604 13.6273 97.9564 12.642 98.4151 11.5193C99.2857 9.29532 100.57 7.51398 102.266 6.17265C103.962 4.83132 106.024 4.16065 108.455 4.16065H109.967C111.319 4.16065 112.495 4.33932 113.491 4.69398Z" fill="#ADD364"/>
<path d="M134.464 4.69398C135.461 5.04998 136.264 5.57665 136.87 6.27532C137.477 6.97532 137.868 7.82865 138.04 8.83665C138.212 9.84598 138.149 11.0033 137.85 12.31L137.748 12.5847C137.449 13.57 137.054 14.4527 136.561 15.2313C136.068 16.0113 135.421 16.6767 134.618 17.226C133.816 17.7767 132.836 18.2127 131.68 18.5327C130.521 18.854 129.14 19.038 127.536 19.0833L129.942 11.8967C130.126 11.4847 130.132 11.1353 129.96 10.8487C129.788 10.562 129.496 10.4193 129.084 10.4193C128.51 10.4193 128.097 10.5273 127.845 10.7447C127.593 10.9633 127.352 11.37 127.124 11.966L123.926 20.114C123.673 20.8247 123.634 21.2833 123.805 21.4887C123.977 21.6953 124.258 21.7993 124.648 21.7993C125.748 21.7993 126.945 21.7873 128.241 21.7647C129.536 21.742 130.825 21.57 132.109 21.2487H132.177C132.2 21.2487 132.212 21.2433 132.212 21.2313C132.212 21.2207 132.224 21.214 132.246 21.214C132.453 21.1687 132.688 21.134 132.95 21.1113C133.214 21.0887 133.45 21.1007 133.656 21.146C133.862 21.1913 134.012 21.278 134.104 21.4033C134.194 21.53 134.184 21.73 134.069 22.006C134.069 22.0513 134.052 22.1033 134.017 22.1593C133.982 22.218 133.965 22.258 133.965 22.2807C133.392 23.3807 132.814 24.2633 132.229 24.9273C131.645 25.5927 131.009 26.102 130.321 26.458C129.633 26.8127 128.872 27.0473 128.034 27.162C127.197 27.2767 126.241 27.334 125.164 27.334H121.692C120.705 27.334 119.766 27.19 118.872 26.9047C117.978 26.618 117.256 26.1313 116.705 25.4433C116.156 24.7553 115.846 23.8447 115.777 22.71C115.709 21.5753 116.008 20.1607 116.672 18.4633C116.877 17.9367 117.106 17.33 117.358 16.642C117.588 16.046 117.869 15.3233 118.201 14.4753C118.533 13.6273 118.929 12.642 119.388 11.5193C120.258 9.29532 121.542 7.51398 123.238 6.17265C124.934 4.83132 126.997 4.16065 129.428 4.16065H130.94C132.292 4.16065 133.468 4.33932 134.464 4.69398Z" fill="#ADD364"/>
<path d="M154.833 4.98575C155.819 5.26041 156.599 5.62841 157.171 6.08574C157.744 6.54441 158.135 7.08975 158.34 7.71908C158.547 8.34975 158.616 9.02041 158.547 9.73108C158.547 10.3724 158.444 10.9804 158.237 11.5524L152.724 25.5857C152.4 26.4124 151.603 26.9551 150.715 26.9551H147.971C146.465 26.9551 145.421 25.4537 145.947 24.0431L150.364 12.1711C150.524 11.7817 150.531 11.4377 150.381 11.1404C150.232 10.8417 149.963 10.6937 149.573 10.6937C149.183 10.6937 148.788 10.8417 148.387 11.1404C147.985 11.4377 147.693 11.7817 147.511 12.1711L142.041 25.6097C141.709 26.4231 140.919 26.9551 140.041 26.9551H137.196C135.665 26.9551 134.62 25.4084 135.192 23.9897L142.461 5.92708C142.791 5.10841 143.584 4.57375 144.465 4.57375H151.12C152.611 4.57375 153.848 4.71108 154.833 4.98575Z" fill="#ADD364"/>
<path d="M58.7588 14.6513C58.4068 15.9127 57.8628 17.0807 56.7228 18.058C57.1548 18.15 57.4374 18.2113 57.7214 18.2727C56.7268 20.3847 54.3014 21.598 51.4548 21.358C51.4134 21.786 51.4148 22.2273 51.3108 22.642C51.2508 22.878 51.0188 23.07 50.8641 23.282C50.7694 23.07 50.5908 22.8567 50.5934 22.6447C50.6414 18.7767 52.0334 15.57 55.2628 13.2847C55.3521 13.222 55.4321 13.1473 55.5414 13.0567C53.1428 13.47 50.6094 16.674 49.8628 20.198C48.6681 19.0687 48.2401 16.5687 48.9321 14.7727C49.6641 12.874 51.4574 11.1087 53.7694 10.0407C53.7774 10.294 53.7841 10.5047 53.7961 10.9153C56.4694 9.54065 59.1841 8.76998 62.2441 9.48465C60.2681 10.754 59.3361 12.5807 58.7588 14.6513ZM63.9321 6.87798C63.3814 5.98332 62.5681 5.30732 61.4908 4.84865C60.4134 4.38998 59.1068 4.16065 57.5708 4.16065H56.0241C53.5948 4.16065 51.5374 4.83132 49.8521 6.17265C48.1681 7.51398 46.8788 9.29532 45.9841 11.5193C45.5254 12.642 45.1361 13.6287 44.8161 14.4753C44.4948 15.3233 44.2188 16.046 43.9908 16.642C43.7388 17.33 43.5094 17.9367 43.3028 18.4633C42.6148 20.1607 42.3054 21.5753 42.3748 22.71C42.4428 23.8447 42.7521 24.7553 43.3028 25.4433C43.8521 26.1313 44.5801 26.618 45.4868 26.9047C46.3908 27.1913 47.3361 27.334 48.3228 27.334H51.7601C52.9748 27.334 54.0468 27.2593 54.9748 27.11C55.9041 26.962 56.7401 26.6407 57.4854 26.1487C58.2294 25.6553 58.9174 24.9393 59.5481 23.9993C60.1774 23.0593 60.8254 21.8113 61.4908 20.2513C61.7654 19.5873 61.9774 19.0713 62.1268 18.7047C62.2761 18.338 62.4188 17.9833 62.5561 17.6393C62.6934 17.2953 62.8481 16.8993 63.0201 16.4527C63.1921 16.006 63.4388 15.3807 63.7601 14.5793C64.4014 12.9287 64.7281 11.4567 64.7401 10.1607C64.7508 8.86598 64.4814 7.77132 63.9321 6.87798Z" fill="#ADD364"/>
<path d="M0 35.6768C25.976 30.1248 52.9973 30.6808 79.38 32.4848C99.1333 33.9208 118.963 34.3195 138.755 33.4915C145.364 33.2622 151.96 32.7902 158.552 32.0942C132.476 37.2368 105.605 37.4382 79.1493 35.7142C52.808 33.7928 26.2933 32.6622 0 35.6768Z" fill="#ADD364"/>
</svg>
